<?xml version="1.0" encoding="UTF-8" standalone="no"?>
<!-- Created with Inkscape (http://www.inkscape.org/) -->

<svg
   xmlns:dc="http://purl.org/dc/elements/1.1/"
   xmlns:cc="http://creativecommons.org/ns#"
   xmlns:rdf="http://www.w3.org/1999/02/22-rdf-syntax-ns#"
   xmlns:svg="http://www.w3.org/2000/svg"
   xmlns="http://www.w3.org/2000/svg"
   xmlns:sodipodi="http://sodipodi.sourceforge.net/DTD/sodipodi-0.dtd"
   xmlns:inkscape="http://www.inkscape.org/namespaces/inkscape"
   id="svg2"
   version="1.1"
   inkscape:version="0.48.4 r9939"
   width="412.25"
   height="50.2125"
   xml:space="preserve"
   sodipodi:docname="bitpocket-logo.svg"><metadata
     id="metadata8"><rdf:RDF><cc:Work
         rdf:about=""><dc:format>image/svg+xml</dc:format><dc:type
           rdf:resource="http://purl.org/dc/dcmitype/StillImage" /><dc:title></dc:title></cc:Work></rdf:RDF></metadata><defs
     id="defs6" /><sodipodi:namedview
     pagecolor="#ffffff"
     bordercolor="#666666"
     borderopacity="1"
     objecttolerance="10"
     gridtolerance="10"
     guidetolerance="10"
     inkscape:pageopacity="0"
     inkscape:pageshadow="2"
     inkscape:window-width="1867"
     inkscape:window-height="1056"
     id="namedview4"
     showgrid="false"
     inkscape:zoom="1.7513645"
     inkscape:cx="193.16983"
     inkscape:cy="44.978142"
     inkscape:window-x="1653"
     inkscape:window-y="24"
     inkscape:window-maximized="1"
     inkscape:current-layer="g12" /><g
     id="g10"
     inkscape:groupmode="layer"
     inkscape:label="ink_ext_XXXXXX"
     transform="matrix(1.25,0,0,-1.25,0,50.2125)"><g
       id="g12"
       transform="scale(0.1,0.1)"><path
         d="m 122.285,21.0273 c -20.117,0 -40.1561,0.6133 -60.078,1.8555 C 42.2461,24.1133 21.5156,27.0234 0,31.6133 L 0,387.383 c 16.9336,3.176 35.4688,5.558 55.5859,7.148 20.1172,1.582 38.8086,2.383 56.1131,2.383 23.301,0 44.739,-1.68 64.324,-5.027 19.59,-3.36 36.438,-9.094 50.571,-17.207 14.109,-8.117 25.144,-18.801 33.094,-32.043 7.929,-13.223 11.894,-29.559 11.894,-48.965 0,-29.297 -14.109,-52.41 -42.344,-69.356 23.282,-8.828 39.18,-20.828 47.637,-35.996 8.477,-15.183 12.715,-32.293 12.715,-51.347 0,-38.4847 -14.043,-67.4222 -42.09,-86.8363 C 219.434,30.7227 177.703,21.0273 122.285,21.0273 m -41.8162,227.6447 40.2222,0 c 25.422,0 43.586,3.262 54.543,9.785 10.926,6.543 16.407,17.031 16.407,31.504 0,14.836 -5.645,25.246 -16.934,31.25 -11.309,5.988 -27.891,9.004 -49.773,9.004 -7.063,0 -14.641,-0.106 -22.766,-0.274 -8.125,-0.183 -15.3516,-0.625 -21.6992,-1.316 l 0,-79.953 z m 0,-62.996 0,-94.7776 c 5.9882,-0.7031 12.5195,-1.2382 19.5902,-1.5898 7.05,-0.3438 14.824,-0.5273 23.281,-0.5273 24.707,0 44.648,3.5351 59.836,10.5937 15.164,7.051 22.762,20.117 22.762,39.191 0,16.934 -6.348,29.012 -19.051,36.258 -12.727,7.227 -30.891,10.852 -54.543,10.852 l -51.8752,0"
         style="fill:#333333;fill-opacity:1;fill-rule:nonzero;stroke:none"
         id="path14" /><path
         d="m 372.031,25.793 82.5977,0 0,366.883 -82.5977,0 0,-366.883 z"
         style="fill:#333333;fill-opacity:1;fill-rule:nonzero;stroke:none"
         id="path16" /><path
         d="m 523.855,392.668 0,-70.422 110.657,0 0,-296.453 82.59,0 0,296.453 110.632,0 0,70.422 -303.879,0"
         style="fill:#333333;fill-opacity:1;fill-rule:nonzero;stroke:none"
         id="path18" /><path
         d="m 1269.36,397.492 c 54.69,0 96.71,-9.609 126,-28.847 29.29,-19.258 43.95,-50.754 43.95,-94.504 0,-44.129 -14.83,-75.977 -44.49,-95.567 -29.63,-19.59 -71.99,-29.383 -127.05,-29.383 l -25.94,0 0,-122.8238 -82.59,0 0,361.5938 c 18,3.516 37.06,5.996 57.18,7.422 20.11,1.394 37.77,2.109 52.94,2.109 m 5.3,-70.41 c -6.01,0 -11.91,-0.195 -17.75,-0.527 -5.81,-0.352 -10.85,-0.715 -15.08,-1.067 l 0,-105.886 25.94,0 c 28.58,0 50.11,3.886 64.59,11.66 14.46,7.742 21.71,22.226 21.71,43.398 0,10.242 -1.86,18.711 -5.55,25.418 -3.71,6.699 -9.01,12.082 -15.9,16.152 -6.87,4.036 -15.26,6.875 -25.15,8.458 -9.87,1.593 -20.82,2.394 -32.81,2.394"
         style="fill:#333333;fill-opacity:1;fill-rule:nonzero;stroke:none"
         id="path20" /><path
         d="m 2118.29,18.9453 c -59.65,0 -105.08,16.5938 -136.32,49.7774 -31.23,33.1523 -46.86,80.2933 -46.86,141.3553 0,30.352 4.77,57.442 14.31,81.262 9.52,23.828 22.57,43.945 39.17,60.359 16.58,16.406 36.35,28.848 59.3,37.324 22.93,8.469 47.8,12.707 74.65,12.707 15.52,0 29.64,-1.152 42.33,-3.449 12.73,-2.293 23.85,-4.941 33.36,-7.937 9.53,-3 17.48,-6.086 23.84,-9.278 6.35,-3.164 10.93,-5.636 13.77,-7.394 L 2212,306.965 c -11.29,5.996 -24.43,11.101 -39.43,15.34 -15.01,4.25 -32.04,6.359 -51.1,6.359 -12.7,0 -25.14,-2.109 -37.32,-6.359 -12.19,-4.239 -22.95,-11.024 -32.3,-20.371 -9.35,-9.364 -16.85,-21.446 -22.49,-36.278 -5.66,-14.824 -8.48,-32.812 -8.48,-53.996 0,-16.941 1.86,-32.742 5.56,-47.383 3.71,-14.648 9.71,-27.265 18,-37.859 8.3,-10.586 19.14,-18.965 32.56,-25.148 13.42,-6.1802 29.65,-9.2583 48.71,-9.2583 12,0 22.77,0.6953 32.3,2.1211 9.53,1.3945 17.99,3.086 25.4,5.0274 7.42,1.9338 13.94,4.1408 19.59,6.6208 5.64,2.473 10.77,4.758 15.36,6.875 l 22.75,-66.1794 c -11.65,-7.0508 -28.04,-13.4102 -49.23,-19.043 -21.17,-5.6563 -45.72,-8.4883 -73.59,-8.4883"
         style="fill:#333333;fill-opacity:1;fill-rule:nonzero;stroke:none"
         id="path22" /><path
         d="m 2526.63,26.3672 c -7.43,11.9336 -16.2,24.8359 -26.28,38.7031 -10.1,13.8672 -20.97,27.8399 -32.64,41.9337 -11.64,14.07 -23.82,27.578 -36.58,40.508 -12.73,12.918 -25.47,24.336 -38.19,34.258 l 0,-155.4028 -82.59,0 0,366.8868 82.59,0 0,-137.891 c 21.23,22.305 42.81,45.633 64.7,69.981 21.91,24.355 42.15,46.992 60.7,67.91 l 98.01,0 c -24.96,-29.727 -50.09,-58.332 -75.35,-85.774 -25.27,-27.449 -51.86,-55.046 -79.77,-82.851 29.36,-24.473 57.68,-53.524 84.93,-87.129 27.28,-33.582 53.49,-70.6445 78.66,-111.1328 l -98.19,0"
         style="fill:#333333;fill-opacity:1;fill-rule:nonzero;stroke:none"
         id="path24" /><path
         d="m 2688.76,26.3672 0,366.8868 247.76,0 0,-69.348 -165.17,0 0,-72.011 146.64,0 0,-67.762 -146.64,0 0,-88.4182 177.34,0 0,-69.3476 -259.93,0"
         style="fill:#333333;fill-opacity:1;fill-rule:nonzero;stroke:none"
         id="path26" /><path
         d="m 2994.1,393.254 0,-70.422 110.65,0 0,-296.4648 82.58,0 0,296.4648 110.64,0 0,70.422 -303.87,0"
         style="fill:#333333;fill-opacity:1;fill-rule:nonzero;stroke:none"
         id="path28" /><path
         d="m 1783.75,218.613 c 6.04,-12.117 9.87,-24.218 11.27,-36.238 1.51,-13.242 -0.02,-26.145 -4.6,-38.762 -4.6,-12.617 -12.25,-24.304 -22.96,-35.058 -10.97,-10.9964 -22.67,-18.7503 -35.14,-23.2698 -12.48,-4.5118 -25.32,-6.0469 -38.55,-4.5704 -12.05,1.336 -24.14,5.125 -36.3,11.1133 l -61.93,-62.1875 c 9.16,-5.9101 18.42,-11.1328 27.79,-15.1367 23.6,-10.05859 46.94,-14.894525 70.03,-14.47265 23.09,0.429688 45.36,5.65234 66.8,15.68355 21.43,10.0274 41,23.9063 58.69,41.668 18.17,18.2539 32.29,38.2031 42.37,59.7972 10.06,21.601 15.13,43.828 15.22,66.66 0.06,22.84 -5.04,45.984 -15.31,69.422 -4.09,9.308 -9.39,18.496 -15.36,27.609 l -62.02,-62.258"
         style="fill:#ffffff;fill-opacity:1;fill-rule:nonzero;stroke:none"
         id="path30" /><path
         d="m 1594.15,147.609 c -3.34,4.774 -6.46,9.59 -9.11,14.5 -7.26,13.457 -11.67,26.797 -13.19,40.032 -1.51,13.211 -0.12,26.152 4.23,38.75 4.34,12.617 11.98,24.414 22.94,35.429 10.71,10.762 22.38,18.438 34.97,23.086 12.6,4.649 25.5,6.231 38.73,4.766 13.23,-1.477 26.6,-5.82 40.09,-13.027 5.05,-2.707 10.04,-5.918 14.97,-9.375 l 60.65,60.898 c -14.7,11.551 -29.64,20.859 -44.89,27.332 -23.61,10.078 -47.01,14.961 -70.22,14.66 -23.22,-0.305 -45.54,-5.461 -66.99,-15.48 -21.44,-10.039 -41,-23.926 -58.69,-41.688 -17.17,-17.238 -30.69,-36.554 -40.5,-57.902 -9.81,-21.375 -14.89,-43.711 -15.21,-67.051 -0.33,-23.328 4.46,-46.902 14.37,-70.723 6.39,-15.378 15.66,-30.39 27.22,-45.0972 l 60.63,60.8902"
         style="fill:#ffffff;fill-opacity:1;fill-rule:nonzero;stroke:none"
         id="path32" /></g></g></svg>